<mxfile host="app.diagrams.net" agent="Mozilla/5.0 (Macintosh; Intel Mac OS X 10_15_7) AppleWebKit/537.36 (KHTML, like Gecko) Chrome/134.0.0.0 Safari/537.36 OPR/119.0.0.0" version="27.2.0">
  <diagram name="หน้า-1" id="axuyyEVFG7uyzSgx_TH8">
    <mxGraphModel dx="1176" dy="797" grid="1" gridSize="10" guides="1" tooltips="1" connect="1" arrows="1" fold="1" page="1" pageScale="1" pageWidth="827" pageHeight="1169" math="0" shadow="0">
      <root>
        <mxCell id="0" />
        <mxCell id="1" parent="0" />
        <mxCell id="FjoXJfc7_WBLy8_cEE0z-3" style="edgeStyle=orthogonalEdgeStyle;rounded=0;orthogonalLoop=1;jettySize=auto;html=1;entryX=0.5;entryY=0;entryDx=0;entryDy=0;" parent="1" source="FjoXJfc7_WBLy8_cEE0z-1" target="FjoXJfc7_WBLy8_cEE0z-2" edge="1">
          <mxGeometry relative="1" as="geometry" />
        </mxCell>
        <mxCell id="FjoXJfc7_WBLy8_cEE0z-1" value="" style="ellipse;whiteSpace=wrap;html=1;aspect=fixed;" parent="1" vertex="1">
          <mxGeometry x="399" y="14" width="30" height="30" as="geometry" />
        </mxCell>
        <mxCell id="FjoXJfc7_WBLy8_cEE0z-8" style="edgeStyle=orthogonalEdgeStyle;rounded=0;orthogonalLoop=1;jettySize=auto;html=1;entryX=0.5;entryY=0;entryDx=0;entryDy=0;" parent="1" source="FjoXJfc7_WBLy8_cEE0z-2" target="FjoXJfc7_WBLy8_cEE0z-7" edge="1">
          <mxGeometry relative="1" as="geometry" />
        </mxCell>
        <mxCell id="FjoXJfc7_WBLy8_cEE0z-2" value="Login" style="rounded=1;whiteSpace=wrap;html=1;" parent="1" vertex="1">
          <mxGeometry x="354" y="70" width="121" height="36" as="geometry" />
        </mxCell>
        <mxCell id="HMXkw_fpxxGjFSOZjkIe-3" style="edgeStyle=orthogonalEdgeStyle;rounded=0;orthogonalLoop=1;jettySize=auto;html=1;entryX=0.5;entryY=0;entryDx=0;entryDy=0;" edge="1" parent="1" source="FjoXJfc7_WBLy8_cEE0z-7" target="FjoXJfc7_WBLy8_cEE0z-9">
          <mxGeometry relative="1" as="geometry" />
        </mxCell>
        <mxCell id="FjoXJfc7_WBLy8_cEE0z-7" value="&lt;span style=&quot;font-size: 10px;&quot;&gt;&lt;b&gt;ดึงข้อมูลของจากฐานข้อมูล&lt;/b&gt;&lt;/span&gt;" style="rounded=1;whiteSpace=wrap;html=1;" parent="1" vertex="1">
          <mxGeometry x="354" y="140" width="122.5" height="50" as="geometry" />
        </mxCell>
        <mxCell id="HMXkw_fpxxGjFSOZjkIe-4" style="edgeStyle=orthogonalEdgeStyle;rounded=0;orthogonalLoop=1;jettySize=auto;html=1;exitX=0.5;exitY=1;exitDx=0;exitDy=0;" edge="1" parent="1" source="FjoXJfc7_WBLy8_cEE0z-9">
          <mxGeometry relative="1" as="geometry">
            <mxPoint x="415" y="370" as="targetPoint" />
          </mxGeometry>
        </mxCell>
        <mxCell id="FjoXJfc7_WBLy8_cEE0z-9" value="เลือกรายการที่ต้องการ&lt;div&gt;ดำเดินการ&lt;/div&gt;" style="rhombus;whiteSpace=wrap;html=1;rounded=1;" parent="1" vertex="1">
          <mxGeometry x="325.25" y="230" width="180" height="110" as="geometry" />
        </mxCell>
        <mxCell id="FjoXJfc7_WBLy8_cEE0z-12" value="" style="shape=link;html=1;rounded=0;" parent="1" edge="1">
          <mxGeometry width="100" relative="1" as="geometry">
            <mxPoint x="285.25" y="369" as="sourcePoint" />
            <mxPoint x="545.25" y="369" as="targetPoint" />
          </mxGeometry>
        </mxCell>
        <mxCell id="FjoXJfc7_WBLy8_cEE0z-28" style="edgeStyle=orthogonalEdgeStyle;rounded=0;orthogonalLoop=1;jettySize=auto;html=1;" parent="1" edge="1">
          <mxGeometry relative="1" as="geometry">
            <mxPoint x="424" y="503" as="sourcePoint" />
            <mxPoint x="425" y="540" as="targetPoint" />
          </mxGeometry>
        </mxCell>
        <mxCell id="FjoXJfc7_WBLy8_cEE0z-15" value="เลือกครุภัณฑ์" style="rounded=1;whiteSpace=wrap;html=1;" parent="1" vertex="1">
          <mxGeometry x="364" y="443" width="120" height="60" as="geometry" />
        </mxCell>
        <mxCell id="FjoXJfc7_WBLy8_cEE0z-29" style="edgeStyle=orthogonalEdgeStyle;rounded=0;orthogonalLoop=1;jettySize=auto;html=1;entryX=0.5;entryY=0;entryDx=0;entryDy=0;" parent="1" source="FjoXJfc7_WBLy8_cEE0z-16" edge="1">
          <mxGeometry relative="1" as="geometry">
            <mxPoint x="592" y="570" as="targetPoint" />
          </mxGeometry>
        </mxCell>
        <mxCell id="FjoXJfc7_WBLy8_cEE0z-16" value="เพิ่มสิ่งของที่ให้ฝาก" style="rounded=1;whiteSpace=wrap;html=1;" parent="1" vertex="1">
          <mxGeometry x="532" y="443" width="120" height="60" as="geometry" />
        </mxCell>
        <mxCell id="FjoXJfc7_WBLy8_cEE0z-20" value="" style="endArrow=classic;html=1;rounded=0;entryX=0.5;entryY=0;entryDx=0;entryDy=0;" parent="1" target="FjoXJfc7_WBLy8_cEE0z-16" edge="1">
          <mxGeometry width="50" height="50" relative="1" as="geometry">
            <mxPoint x="500" y="373" as="sourcePoint" />
            <mxPoint x="338.5" y="448" as="targetPoint" />
          </mxGeometry>
        </mxCell>
        <mxCell id="FjoXJfc7_WBLy8_cEE0z-21" value="" style="endArrow=classic;html=1;rounded=0;" parent="1" edge="1">
          <mxGeometry width="50" height="50" relative="1" as="geometry">
            <mxPoint x="413.5" y="373" as="sourcePoint" />
            <mxPoint x="420" y="440" as="targetPoint" />
          </mxGeometry>
        </mxCell>
        <mxCell id="FjoXJfc7_WBLy8_cEE0z-41" style="edgeStyle=orthogonalEdgeStyle;rounded=0;orthogonalLoop=1;jettySize=auto;html=1;entryX=0.5;entryY=0;entryDx=0;entryDy=0;" parent="1" source="FjoXJfc7_WBLy8_cEE0z-32" target="FjoXJfc7_WBLy8_cEE0z-40" edge="1">
          <mxGeometry relative="1" as="geometry" />
        </mxCell>
        <mxCell id="FjoXJfc7_WBLy8_cEE0z-32" value="บันทึกลงระบบ" style="rounded=1;whiteSpace=wrap;html=1;" parent="1" vertex="1">
          <mxGeometry x="373" y="974" width="120" height="60" as="geometry" />
        </mxCell>
        <mxCell id="FjoXJfc7_WBLy8_cEE0z-33" value="" style="shape=link;html=1;rounded=0;" parent="1" edge="1">
          <mxGeometry width="100" relative="1" as="geometry">
            <mxPoint x="303" y="910" as="sourcePoint" />
            <mxPoint x="563" y="910" as="targetPoint" />
          </mxGeometry>
        </mxCell>
        <mxCell id="FjoXJfc7_WBLy8_cEE0z-39" value="" style="endArrow=classic;html=1;rounded=0;entryX=0.5;entryY=0;entryDx=0;entryDy=0;" parent="1" edge="1">
          <mxGeometry width="50" height="50" relative="1" as="geometry">
            <mxPoint x="433" y="912" as="sourcePoint" />
            <mxPoint x="433" y="972" as="targetPoint" />
          </mxGeometry>
        </mxCell>
        <mxCell id="FjoXJfc7_WBLy8_cEE0z-40" value="" style="ellipse;whiteSpace=wrap;html=1;aspect=fixed;" parent="1" vertex="1">
          <mxGeometry x="418" y="1077" width="30" height="30" as="geometry" />
        </mxCell>
        <mxCell id="HMXkw_fpxxGjFSOZjkIe-14" value="NO" style="edgeStyle=orthogonalEdgeStyle;rounded=0;orthogonalLoop=1;jettySize=auto;html=1;entryX=0;entryY=0.5;entryDx=0;entryDy=0;" edge="1" parent="1" source="HMXkw_fpxxGjFSOZjkIe-5" target="FjoXJfc7_WBLy8_cEE0z-15">
          <mxGeometry relative="1" as="geometry">
            <Array as="points">
              <mxPoint x="298" y="600" />
              <mxPoint x="298" y="473" />
            </Array>
          </mxGeometry>
        </mxCell>
        <mxCell id="HMXkw_fpxxGjFSOZjkIe-15" style="edgeStyle=orthogonalEdgeStyle;rounded=0;orthogonalLoop=1;jettySize=auto;html=1;" edge="1" parent="1" source="HMXkw_fpxxGjFSOZjkIe-5">
          <mxGeometry relative="1" as="geometry">
            <mxPoint x="424" y="710" as="targetPoint" />
          </mxGeometry>
        </mxCell>
        <mxCell id="HMXkw_fpxxGjFSOZjkIe-16" value="Yes" style="edgeLabel;html=1;align=center;verticalAlign=middle;resizable=0;points=[];" vertex="1" connectable="0" parent="HMXkw_fpxxGjFSOZjkIe-15">
          <mxGeometry x="-0.0628" y="-1" relative="1" as="geometry">
            <mxPoint as="offset" />
          </mxGeometry>
        </mxCell>
        <mxCell id="HMXkw_fpxxGjFSOZjkIe-5" value="&lt;font style=&quot;vertical-align: inherit;&quot; dir=&quot;auto&quot;&gt;&lt;font style=&quot;vertical-align: inherit;&quot; dir=&quot;auto&quot;&gt;&lt;font style=&quot;vertical-align: inherit;&quot; dir=&quot;auto&quot;&gt;&lt;font style=&quot;vertical-align: inherit;&quot; dir=&quot;auto&quot;&gt;ตรวจสอบสถานะ&lt;/font&gt;&lt;/font&gt;&lt;/font&gt;&lt;/font&gt;&lt;div&gt;&lt;font style=&quot;vertical-align: inherit;&quot; dir=&quot;auto&quot;&gt;&lt;font style=&quot;vertical-align: inherit;&quot; dir=&quot;auto&quot;&gt;ของวัสดุและครุภัณฑ์&lt;/font&gt;&lt;/font&gt;&lt;/div&gt;" style="rhombus;whiteSpace=wrap;html=1;" vertex="1" parent="1">
          <mxGeometry x="342" y="540" width="164" height="120" as="geometry" />
        </mxCell>
        <mxCell id="HMXkw_fpxxGjFSOZjkIe-9" value="Yes" style="edgeStyle=orthogonalEdgeStyle;rounded=0;orthogonalLoop=1;jettySize=auto;html=1;" edge="1" parent="1" source="HMXkw_fpxxGjFSOZjkIe-6">
          <mxGeometry relative="1" as="geometry">
            <mxPoint x="592" y="710" as="targetPoint" />
          </mxGeometry>
        </mxCell>
        <mxCell id="HMXkw_fpxxGjFSOZjkIe-38" style="edgeStyle=orthogonalEdgeStyle;rounded=0;orthogonalLoop=1;jettySize=auto;html=1;" edge="1" parent="1" source="HMXkw_fpxxGjFSOZjkIe-6" target="FjoXJfc7_WBLy8_cEE0z-9">
          <mxGeometry relative="1" as="geometry">
            <Array as="points">
              <mxPoint x="770" y="610" />
              <mxPoint x="770" y="285" />
            </Array>
          </mxGeometry>
        </mxCell>
        <mxCell id="HMXkw_fpxxGjFSOZjkIe-40" value="NO" style="edgeLabel;html=1;align=center;verticalAlign=middle;resizable=0;points=[];" vertex="1" connectable="0" parent="HMXkw_fpxxGjFSOZjkIe-38">
          <mxGeometry x="-0.2453" y="-1" relative="1" as="geometry">
            <mxPoint as="offset" />
          </mxGeometry>
        </mxCell>
        <mxCell id="HMXkw_fpxxGjFSOZjkIe-6" value="&lt;span style=&quot;font-size: 10px;&quot;&gt;เข็คว่าเป็น Admin&lt;/span&gt;" style="rhombus;whiteSpace=wrap;html=1;" vertex="1" parent="1">
          <mxGeometry x="529" y="570" width="126" height="80" as="geometry" />
        </mxCell>
        <mxCell id="HMXkw_fpxxGjFSOZjkIe-10" value="เพื่มของลงในระบบ/&lt;div&gt;ลบของในระบบ&lt;/div&gt;" style="rounded=1;whiteSpace=wrap;html=1;" vertex="1" parent="1">
          <mxGeometry x="535" y="710" width="120" height="60" as="geometry" />
        </mxCell>
        <mxCell id="HMXkw_fpxxGjFSOZjkIe-20" style="edgeStyle=orthogonalEdgeStyle;rounded=0;orthogonalLoop=1;jettySize=auto;html=1;exitX=0;exitY=0.5;exitDx=0;exitDy=0;entryX=0;entryY=0.5;entryDx=0;entryDy=0;" edge="1" parent="1" source="HMXkw_fpxxGjFSOZjkIe-18" target="FjoXJfc7_WBLy8_cEE0z-15">
          <mxGeometry relative="1" as="geometry">
            <Array as="points">
              <mxPoint x="298" y="750" />
              <mxPoint x="298" y="473" />
            </Array>
          </mxGeometry>
        </mxCell>
        <mxCell id="HMXkw_fpxxGjFSOZjkIe-22" value="NO" style="edgeLabel;html=1;align=center;verticalAlign=middle;resizable=0;points=[];" vertex="1" connectable="0" parent="HMXkw_fpxxGjFSOZjkIe-20">
          <mxGeometry x="-0.2918" y="-1" relative="1" as="geometry">
            <mxPoint as="offset" />
          </mxGeometry>
        </mxCell>
        <mxCell id="HMXkw_fpxxGjFSOZjkIe-41" style="edgeStyle=orthogonalEdgeStyle;rounded=0;orthogonalLoop=1;jettySize=auto;html=1;" edge="1" parent="1" source="HMXkw_fpxxGjFSOZjkIe-18">
          <mxGeometry relative="1" as="geometry">
            <mxPoint x="424" y="910" as="targetPoint" />
          </mxGeometry>
        </mxCell>
        <mxCell id="HMXkw_fpxxGjFSOZjkIe-18" value="&lt;font style=&quot;font-size: 13px;&quot;&gt;&lt;font style=&quot;vertical-align: inherit;&quot; dir=&quot;auto&quot;&gt;ยืนยันการยืม&amp;nbsp;&lt;/font&gt;&lt;/font&gt;&lt;span style=&quot;font-size: 13px;&quot;&gt;วัสดุ และครุภัณฑ์&lt;/span&gt;" style="rhombus;whiteSpace=wrap;html=1;" vertex="1" parent="1">
          <mxGeometry x="364" y="710" width="120" height="80" as="geometry" />
        </mxCell>
        <mxCell id="HMXkw_fpxxGjFSOZjkIe-24" value="" style="endArrow=classic;html=1;rounded=0;" edge="1" parent="1">
          <mxGeometry width="50" height="50" relative="1" as="geometry">
            <mxPoint x="610" y="775" as="sourcePoint" />
            <mxPoint x="540" y="910" as="targetPoint" />
          </mxGeometry>
        </mxCell>
        <mxCell id="HMXkw_fpxxGjFSOZjkIe-27" style="edgeStyle=orthogonalEdgeStyle;rounded=0;orthogonalLoop=1;jettySize=auto;html=1;" edge="1" parent="1" source="HMXkw_fpxxGjFSOZjkIe-28">
          <mxGeometry relative="1" as="geometry">
            <mxPoint x="196" y="573.5" as="targetPoint" />
          </mxGeometry>
        </mxCell>
        <mxCell id="HMXkw_fpxxGjFSOZjkIe-28" value="เพิ่มฟังก์ชั่นระบบ" style="rounded=1;whiteSpace=wrap;html=1;direction=west;" vertex="1" parent="1">
          <mxGeometry x="136" y="450" width="120" height="60" as="geometry" />
        </mxCell>
        <mxCell id="HMXkw_fpxxGjFSOZjkIe-31" value="Yes" style="edgeStyle=orthogonalEdgeStyle;rounded=0;orthogonalLoop=1;jettySize=auto;html=1;" edge="1" parent="1" source="HMXkw_fpxxGjFSOZjkIe-32">
          <mxGeometry relative="1" as="geometry">
            <mxPoint x="196" y="713.5" as="targetPoint" />
          </mxGeometry>
        </mxCell>
        <mxCell id="HMXkw_fpxxGjFSOZjkIe-36" style="edgeStyle=orthogonalEdgeStyle;rounded=0;orthogonalLoop=1;jettySize=auto;html=1;entryX=0;entryY=0.5;entryDx=0;entryDy=0;" edge="1" parent="1" source="HMXkw_fpxxGjFSOZjkIe-32" target="FjoXJfc7_WBLy8_cEE0z-9">
          <mxGeometry relative="1" as="geometry">
            <mxPoint x="90" y="613.5" as="targetPoint" />
            <Array as="points">
              <mxPoint x="80" y="614" />
              <mxPoint x="80" y="285" />
            </Array>
          </mxGeometry>
        </mxCell>
        <mxCell id="HMXkw_fpxxGjFSOZjkIe-37" value="NO" style="edgeLabel;html=1;align=center;verticalAlign=middle;resizable=0;points=[];" vertex="1" connectable="0" parent="HMXkw_fpxxGjFSOZjkIe-36">
          <mxGeometry x="-0.3058" relative="1" as="geometry">
            <mxPoint as="offset" />
          </mxGeometry>
        </mxCell>
        <mxCell id="HMXkw_fpxxGjFSOZjkIe-32" value="&lt;span style=&quot;font-size: 10px;&quot;&gt;เข็คว่าเป็น Admin&lt;/span&gt;" style="rhombus;whiteSpace=wrap;html=1;direction=west;" vertex="1" parent="1">
          <mxGeometry x="130" y="573.5" width="126" height="80" as="geometry" />
        </mxCell>
        <mxCell id="HMXkw_fpxxGjFSOZjkIe-33" value="เพื่มaฟังก์ชั่น" style="rounded=1;whiteSpace=wrap;html=1;direction=west;" vertex="1" parent="1">
          <mxGeometry x="130" y="713.5" width="120" height="60" as="geometry" />
        </mxCell>
        <mxCell id="HMXkw_fpxxGjFSOZjkIe-43" value="" style="endArrow=classic;html=1;rounded=0;exitX=0.5;exitY=0;exitDx=0;exitDy=0;" edge="1" parent="1" source="HMXkw_fpxxGjFSOZjkIe-33">
          <mxGeometry width="50" height="50" relative="1" as="geometry">
            <mxPoint x="190" y="780" as="sourcePoint" />
            <mxPoint x="360" y="910" as="targetPoint" />
          </mxGeometry>
        </mxCell>
        <mxCell id="HMXkw_fpxxGjFSOZjkIe-44" value="" style="endArrow=classic;html=1;rounded=0;entryX=0.5;entryY=1;entryDx=0;entryDy=0;" edge="1" parent="1" target="HMXkw_fpxxGjFSOZjkIe-28">
          <mxGeometry width="50" height="50" relative="1" as="geometry">
            <mxPoint x="310" y="370" as="sourcePoint" />
            <mxPoint x="332.5" y="470" as="targetPoint" />
          </mxGeometry>
        </mxCell>
      </root>
    </mxGraphModel>
  </diagram>
</mxfile>
